<?xml version="1.0" standalone="no"?>
<!DOCTYPE svg PUBLIC "-//W3C//DTD SVG 20010904//EN"
 "http://www.w3.org/TR/2001/REC-SVG-20010904/DTD/svg10.dtd">
<svg version="1.0" xmlns="http://www.w3.org/2000/svg"
 width="700.000000pt" height="700.000000pt" viewBox="0 0 700.000000 700.000000"
 preserveAspectRatio="xMidYMid meet">
<metadata>
Created by potrace 1.14, written by Peter Selinger 2001-2017
</metadata>
<g transform="translate(0.000000,700.000000) scale(0.100000,-0.100000)"
fill="#000000" stroke="none">
<path d="M3308 6995 c-2 -1 -36 -6 -75 -9 -357 -31 -767 -171 -1095 -372 -166
-102 -370 -263 -483 -380 -176 -183 -262 -291 -365 -454 -29 -47 -61 -97 -71
-111 -26 -39 -159 -314 -159 -330 0 -8 -6 -23 -13 -34 -17 -25 -90 -245 -116
-350 -28 -116 -56 -268 -66 -370 -3 -33 -8 -73 -10 -90 -6 -41 -7 -404 -1
-435 2 -14 7 -56 11 -95 6 -67 31 -224 40 -255 2 -8 6 -26 9 -40 27 -159 132
-455 222 -631 24 -47 44 -88 44 -91 0 -7 130 -220 139 -228 3 -3 13 -17 21
-32 36 -63 194 -252 305 -364 249 -249 523 -436 839 -570 l99 -42 -40 -21
c-52 -26 -93 -75 -93 -110 0 -32 47 -82 105 -110 l39 -19 -42 -21 c-51 -26
-90 -64 -98 -95 -11 -47 34 -102 111 -135 l30 -13 -46 -24 c-53 -26 -99 -76
-99 -105 0 -43 27 -74 102 -115 l38 -21 -56 -34 c-66 -40 -90 -74 -80 -114 9
-34 52 -76 103 -100 l37 -18 -46 -23 c-47 -24 -98 -75 -98 -99 0 -24 20 -68
38 -82 60 -49 240 -108 410 -134 l77 -12 0 -52 c0 -44 5 -59 31 -92 75 -92
243 -153 444 -158 211 -6 349 24 465 101 68 45 98 92 99 155 0 27 5 49 11 50
68 4 257 44 332 70 71 24 137 63 158 91 21 31 19 80 -4 110 -11 13 -40 35 -65
49 -25 13 -46 26 -46 29 0 4 15 11 33 18 40 15 79 49 93 82 20 47 -7 92 -80
135 -42 25 -46 29 -30 38 145 75 156 154 31 226 l-50 29 39 20 c42 21 93 68
95 86 6 58 -26 102 -100 138 -35 17 -41 23 -27 26 25 5 87 44 104 65 23 27 30
70 16 98 -13 26 -81 79 -102 79 -21 0 -13 18 11 26 85 26 331 150 455 231 452
291 820 727 1025 1218 21 50 42 99 47 110 17 37 78 240 98 325 63 262 80 422
76 715 -2 116 -5 221 -8 235 -3 14 -10 63 -16 110 -24 186 -93 444 -172 645
-44 109 -162 342 -228 445 -58 91 -182 260 -239 325 -114 129 -319 320 -420
393 -411 293 -758 431 -1271 507 -45 7 -466 16 -472 10z m412 -1878 c298 -89
514 -319 595 -632 20 -77 23 -110 21 -230 -3 -119 -7 -154 -30 -230 -81 -269
-269 -478 -508 -570 -27 -10 -48 -19 -48 -20 0 -2 33 -92 74 -201 41 -110 131
-352 201 -539 168 -454 158 -426 204 -547 23 -58 41 -111 41 -117 0 -14 -2
-14 -75 3 -73 17 -111 24 -190 32 -33 3 -71 8 -85 10 -140 23 -696 23 -865 -1
-16 -2 -66 -9 -110 -15 -91 -12 -122 -17 -184 -31 -24 -5 -45 -8 -46 -7 -2 2
17 57 42 123 24 66 76 206 114 310 64 173 86 232 110 290 26 64 239 648 244
667 5 21 -4 28 -92 71 -158 77 -282 191 -366 337 -257 442 -92 1015 358 1242
60 31 175 68 230 75 22 3 42 7 44 9 2 2 56 2 120 0 86 -3 138 -10 201 -29z"/>
</g>
</svg>
